<svg width="200" height="200" viewBox="0 0 200 200" fill="none" xmlns="http://www.w3.org/2000/svg">
	<rect width="200" height="200" fill="#005495"/>
	<path d="M2125 4403 c-569 -72 -1065 -393 -1368 -883 -134 -218 -229 -502
-256 -769 -96 -936 533 -1803 1449 -1999 219 -47 488 -54 695 -17 443 77 844
310 1119 649 l77 94 222 4 c194 4 230 7 287 26 131 43 208 117 251 242 21 61
23 84 27 393 5 446 -10 541 -103 645 -88 98 -215 142 -417 142 -283 0 -429
-82 -499 -281 -21 -57 -23 -83 -24 -234 0 -148 3 -179 22 -240 55 -174 157
-251 366 -276 120 -15 244 1 325 42 31 15 58 26 60 25 2 -2 -2 -39 -8 -82 -21
-152 -69 -185 -290 -195 -80 -3 -153 -10 -163 -14 -10 -4 -40 -40 -67 -79 -69
-103 -163 -219 -234 -290 -533 -533 -1342 -673 -2016 -350 -499 239 -853 685
-974 1225 -67 303 -51 637 45 931 42 129 166 376 244 483 298 414 751 680
1254 735 196 22 440 4 631 -45 338 -87 667 -290 890 -547 81 -93 204 -273 246
-360 27 -55 30 -58 66 -58 21 0 38 3 38 8 0 15 -84 170 -134 247 -247 378
-634 659 -1068 775 -174 46 -290 60 -488 58 -96 0 -188 -3 -205 -5z m2134
-1715 c25 -13 53 -37 63 -53 46 -81 50 -344 7 -431 -38 -77 -68 -89 -224 -89
-145 0 -178 11 -215 71 -47 76 -52 344 -7 434 37 74 111 102 251 95 56 -3 93
-11 125 -27z" fill="#FFFFFF"/>
</svg>