<svg width="24" height="24" viewBox="0 0 24 24" fill="none" xmlns="http://www.w3.org/2000/svg">
<g clip-path="url(#clip0_101_33201)">
<path d="M23.3389 6.66158L21.178 8.82252C20.9577 9.04283 20.6014 9.04283 20.3811 8.82252L15.178 3.61939C14.9577 3.39908 14.9577 3.04283 15.178 2.82251L17.3389 0.661573C18.2155 -0.21499 19.6405 -0.21499 20.5217 0.661573L23.3389 3.47876C24.2201 4.35533 24.2201 5.78033 23.3389 6.66158ZM13.3217 4.67877L1.01236 16.9882L0.0186158 22.6835C-0.117322 23.4522 0.55299 24.1178 1.32174 23.9866L7.01704 22.9882L19.3264 10.6788C19.5467 10.4585 19.5467 10.1022 19.3264 9.8819L14.1233 4.67877C13.8983 4.45845 13.542 4.45845 13.3217 4.67877ZM5.81705 15.9335C5.55923 15.6757 5.55923 15.2632 5.81705 15.0053L13.0358 7.78658C13.2936 7.52877 13.7061 7.52877 13.9639 7.78658C14.2217 8.04439 14.2217 8.45689 13.9639 8.71471L6.74517 15.9335C6.48736 16.1913 6.07486 16.1913 5.81705 15.9335ZM4.12486 19.8757H6.37486V21.5772L3.35142 22.1069L1.89361 20.6491L2.4233 17.6257H4.12486V19.8757Z" fill="#212121"/>
</g>
<defs>
<clipPath id="clip0_101_33201">
<rect width="24" height="24" fill="white"/>
</clipPath>
</defs>
</svg>
