<?xml version="1.0" standalone="no"?>
<!DOCTYPE svg PUBLIC "-//W3C//DTD SVG 20010904//EN"
 "http://www.w3.org/TR/2001/REC-SVG-20010904/DTD/svg10.dtd">
<svg version="1.0" xmlns="http://www.w3.org/2000/svg"
 width="512.000000pt" height="512.000000pt" viewBox="0 0 512.000000 512.000000"
 preserveAspectRatio="xMidYMid meet">

<g transform="translate(0.000000,512.000000) scale(0.100000,-0.100000)"
fill="#000000" stroke="none">
<path d="M2285 5089 c-477 -58 -934 -251 -1304 -550 -108 -86 -305 -284 -399
-401 -294 -362 -475 -796 -538 -1283 -20 -160 -15 -524 11 -680 59 -368 196
-715 406 -1029 104 -156 188 -255 366 -428 470 -456 1078 -700 1743 -699 394
0 738 77 1078 241 337 163 543 316 810 604 299 322 513 741 602 1178 37 180
50 315 50 519 0 410 -76 738 -255 1104 -137 280 -246 435 -460 654 -169 173
-256 246 -420 356 -330 221 -707 362 -1096 410 -134 16 -473 19 -594 4z m486
-981 c73 -36 160 -125 201 -207 32 -63 33 -71 33 -181 0 -110 -2 -119 -32
-180 -33 -67 -110 -155 -173 -196 -94 -62 -289 -71 -397 -19 -74 37 -172 135
-209 211 -27 56 -29 66 -29 184 0 119 1 128 30 185 40 79 131 169 208 206 60
29 65 30 187 27 112 -3 132 -7 181 -30z m209 -2118 l0 -930 -395 0 -395 0 0
930 0 930 395 0 395 0 0 -930z"/>
</g>
</svg>
