<?xml version="1.0" standalone="no"?>
<!DOCTYPE svg PUBLIC "-//W3C//DTD SVG 20010904//EN"
 "http://www.w3.org/TR/2001/REC-SVG-20010904/DTD/svg10.dtd">
<svg version="1.0" xmlns="http://www.w3.org/2000/svg"
 width="512.000000pt" height="512.000000pt" viewBox="0 0 512.000000 512.000000"
 preserveAspectRatio="xMidYMid meet">

<g transform="translate(0.000000,512.000000) scale(0.100000,-0.100000)"
fill="#000000" stroke="none">
<path d="M2285 5089 c-477 -58 -934 -251 -1304 -550 -108 -86 -305 -284 -399
-401 -294 -362 -475 -796 -538 -1283 -20 -160 -15 -524 11 -680 59 -368 196
-715 406 -1029 104 -156 188 -255 366 -428 470 -456 1078 -700 1743 -699 394
0 738 77 1078 241 337 163 543 316 810 604 299 322 513 741 602 1178 37 180
50 315 50 519 0 410 -76 738 -255 1104 -137 280 -246 435 -460 654 -169 173
-256 246 -420 356 -330 221 -707 362 -1096 410 -134 16 -473 19 -594 4z m-171
-1588 l469 -468 467 468 c274 276 474 469 485 469 10 0 122 -104 262 -244 187
-187 244 -250 241 -266 -2 -11 -207 -225 -468 -485 l-465 -465 468 -468 c296
-296 467 -474 467 -487 0 -24 -480 -505 -504 -505 -10 0 -229 210 -487 468
l-469 467 -467 -467 c-257 -258 -474 -468 -482 -468 -19 0 -511 490 -511 509
0 8 211 225 469 482 l469 469 -469 468 c-258 258 -469 475 -469 483 0 18 492
509 510 509 8 0 226 -211 484 -469z"/>
</g>
</svg>
