<svg width="24" height="24" viewBox="0 0 24 24" fill="none" xmlns="http://www.w3.org/2000/svg">
<g clip-path="url(#clip0_101_33469)">
<path d="M1.71429 21.7499C1.71429 22.3466 1.9852 22.9189 2.46744 23.3409C2.94968 23.7628 3.60373 23.9999 4.28571 23.9999H19.7143C20.3963 23.9999 21.0503 23.7628 21.5326 23.3409C22.0148 22.9189 22.2857 22.3466 22.2857 21.7499V5.99989H1.71429V21.7499ZM16.2857 9.74989C16.2857 9.55097 16.376 9.36021 16.5368 9.21956C16.6975 9.0789 16.9155 8.99989 17.1429 8.99989C17.3702 8.99989 17.5882 9.0789 17.7489 9.21956C17.9097 9.36021 18 9.55097 18 9.74989V20.2499C18 20.4488 17.9097 20.6396 17.7489 20.7802C17.5882 20.9209 17.3702 20.9999 17.1429 20.9999C16.9155 20.9999 16.6975 20.9209 16.5368 20.7802C16.376 20.6396 16.2857 20.4488 16.2857 20.2499V9.74989ZM11.1429 9.74989C11.1429 9.55097 11.2332 9.36021 11.3939 9.21956C11.5547 9.0789 11.7727 8.99989 12 8.99989C12.2273 8.99989 12.4453 9.0789 12.6061 9.21956C12.7668 9.36021 12.8571 9.55097 12.8571 9.74989V20.2499C12.8571 20.4488 12.7668 20.6396 12.6061 20.7802C12.4453 20.9209 12.2273 20.9999 12 20.9999C11.7727 20.9999 11.5547 20.9209 11.3939 20.7802C11.2332 20.6396 11.1429 20.4488 11.1429 20.2499V9.74989ZM6 9.74989C6 9.55097 6.09031 9.36021 6.25105 9.21956C6.4118 9.0789 6.62981 8.99989 6.85714 8.99989C7.08447 8.99989 7.30249 9.0789 7.46323 9.21956C7.62398 9.36021 7.71429 9.55097 7.71429 9.74989V20.2499C7.71429 20.4488 7.62398 20.6396 7.46323 20.7802C7.30249 20.9209 7.08447 20.9999 6.85714 20.9999C6.62981 20.9999 6.4118 20.9209 6.25105 20.7802C6.09031 20.6396 6 20.4488 6 20.2499V9.74989ZM23.1429 1.49989H16.7143L16.2107 0.623324C16.104 0.435924 15.9397 0.278287 15.7362 0.168148C15.5328 0.0580085 15.2982 -0.000264006 15.0589 -0.000113852H8.93571C8.69699 -0.000916846 8.46283 0.0571383 8.26007 0.1674C8.05731 0.277662 7.89415 0.435671 7.78929 0.623324L7.28571 1.49989H0.857143C0.629814 1.49989 0.411797 1.5789 0.251051 1.71956C0.0903059 1.86021 0 2.05097 0 2.24989L0 3.74989C0 3.9488 0.0903059 4.13956 0.251051 4.28022C0.411797 4.42087 0.629814 4.49989 0.857143 4.49989H23.1429C23.3702 4.49989 23.5882 4.42087 23.7489 4.28022C23.9097 4.13956 24 3.9488 24 3.74989V2.24989C24 2.05097 23.9097 1.86021 23.7489 1.71956C23.5882 1.5789 23.3702 1.49989 23.1429 1.49989Z" fill="#212121"/>
</g>
<defs>
<clipPath id="clip0_101_33469">
<rect width="24" height="24" fill="white"/>
</clipPath>
</defs>
</svg>
