<?xml version="1.0" standalone="no"?>
<!DOCTYPE svg PUBLIC "-//W3C//DTD SVG 20010904//EN"
 "http://www.w3.org/TR/2001/REC-SVG-20010904/DTD/svg10.dtd">
<svg version="1.0" xmlns="http://www.w3.org/2000/svg"
 width="512.000000pt" height="512.000000pt" viewBox="0 0 512.000000 512.000000"
 preserveAspectRatio="xMidYMid meet">

<g transform="translate(0.000000,512.000000) scale(0.100000,-0.100000)"
fill="#000000" stroke="none">
<path d="M2250 5075 c-479 -62 -950 -267 -1305 -566 -93 -79 -289 -275 -367
-370 -227 -272 -432 -704 -508 -1070 -68 -327 -68 -711 -1 -1034 81 -387 288
-815 530 -1099 83 -96 279 -291 372 -368 82 -69 262 -188 394 -261 247 -137
579 -242 900 -283 160 -20 524 -15 680 11 442 71 894 274 1223 548 118 99 351
342 429 447 272 370 440 794 494 1245 15 130 15 423 0 550 -58 472 -248 937
-529 1290 -73 92 -297 320 -394 402 -289 242 -692 436 -1084 522 -225 50 -606
66 -834 36z m800 -902 c0 -10 -38 -364 -84 -788 -47 -423 -101 -927 -122
-1120 -20 -192 -40 -353 -43 -357 -10 -12 -308 -20 -401 -11 l-85 8 -37 355
c-21 195 -76 704 -123 1131 -47 427 -85 781 -85 788 0 8 132 11 490 11 460 0
490 -1 490 -17z m-382 -2671 c98 -31 180 -101 230 -198 21 -40 31 -139 21
-214 -14 -117 -91 -225 -198 -277 -50 -25 -67 -28 -161 -28 -94 0 -111 3 -161
28 -72 35 -132 100 -172 185 -27 58 -31 78 -31 152 -1 71 4 94 26 140 34 72
66 113 121 156 89 69 213 90 325 56z"/>
</g>
</svg>
